Genre:Action | Sci-F
Language:English 
http://www.imdb.com/title/tt1876349/
Source:720p BluRay AC3 x264-CHD Thanks
Encoder:Tony

Format : AVI
Format/Info : Audio Video Interleave
File size : 1.24 GiB
Duration : 1h 27mn
Overall bit rate : 2 039 Kbps

Video
ID : 0
Format : MPEG-4 Visual
Format profile : Advanced Simple@L5
Format settings, BVOP : 1
Format settings, QPel : No
Format settings, GMC : No warppoints
Format settings, Matrix : Default (H.263)
Codec ID : XVID
Codec ID/Hint : XviD
Duration : 1h 27mn
Bit rate : 1 646 Kbps
Width : 640 pixels
Height : 360 pixels
Display aspect ratio : 16:9
Frame rate : 23.976 fps
Color space : YUV
Chroma subsampling : 4:2:0
Bit depth : 8 bits
Scan type : Progressive
Compression mode : Lossy
Bits/(Pixel*Frame) : 0.298
Stream size : 1.00 GiB (81%)
Writing library : XviD 1.2.1 (UTC 2008-12-04)

Audio
ID : 1
Format : AC-3
Format/Info : Audio Coding 3
Mode extension : CM (complete main)
Codec ID : 2000
Duration : 1h 27mn
Bit rate mode : Constant
Bit rate : 384 Kbps
Channel(s) : 6 channels
Channel positions : Front: L C R, Side: L R, LFE
Sampling rate : 48.0 KHz
Bit depth : 16 bits
Compression mode : Lossy
Stream size : 240 MiB (19%)
Alignment : Aligned on interleaves
Interleave, duration : 42 ms (1.00 video frame)
Interleave, preload duration : 512 ms

Plot:
Many years ago, hundreds of locals and tourists were massacred by giant man-eating sharks in the infamous 1916 Jersey Shore attacks. But that's just a legend.

 
http://img689.imageshack.us/img689/3253/vlcsnap2012080821h16m21.png 
http://img42.imageshack.us/img42/9968/vlcsnap2012080821h16m28.png 
http://img38.imageshack.us/img38/2861/vlcsnap2012080821h16m59.png 
http://img38.imageshack.us/img38/2861/vlcsnap2012080821h16m59.png 
http://img713.imageshack.us/img713/8990/vlcsnap2012080821h17m43.png